<?xml version="1.0" standalone="no"?>
<!DOCTYPE svg PUBLIC "-//W3C//DTD SVG 20010904//EN"
 "http://www.w3.org/TR/2001/REC-SVG-20010904/DTD/svg10.dtd">
<svg version="1.0" xmlns="http://www.w3.org/2000/svg"
 width="512.000000pt" height="512.000000pt" viewBox="0 0 512.000000 512.000000"
 preserveAspectRatio="xMidYMid meet">
<metadata>
Created by potrace 1.14, written by Peter Selinger 2001-2017
</metadata>
<g transform="translate(0.000000,512.000000) scale(0.100000,-0.100000)"
fill="#000000" stroke="none">
<path d="M2290 4492 c-110 -8 -223 -62 -305 -147 -57 -59 -110 -147 -351 -584
-17 -31 -42 -76 -56 -101 -108 -190 -316 -560 -376 -670 -14 -25 -42 -74 -62
-110 -21 -36 -49 -85 -62 -110 -13 -25 -109 -196 -213 -380 -103 -184 -199
-355 -213 -380 -14 -25 -39 -70 -56 -100 -18 -30 -35 -62 -39 -70 -4 -8 -13
-24 -20 -35 -7 -11 -32 -56 -57 -100 -24 -44 -55 -98 -67 -120 -79 -136 -106
-229 -102 -347 4 -125 49 -233 139 -331 37 -41 174 -126 239 -149 157 -56 364
-10 481 105 60 59 76 86 270 432 95 171 182 326 193 345 11 19 58 103 104 185
l84 150 -2 -405 c-2 -390 -1 -407 19 -471 116 -354 561 -483 835 -242 54 48
104 118 144 202 20 42 83 159 140 260 56 101 103 188 103 192 0 5 5 9 10 9 6
0 10 4 10 10 0 9 226 417 239 432 6 7 4 -612 -2 -702 -6 -83 38 -224 92 -300
98 -138 253 -220 425 -225 212 -6 403 121 486 325 8 19 29 62 48 95 19 33 48
85 65 115 16 30 39 69 49 85 10 17 21 37 25 45 4 8 43 78 86 155 44 77 98 174
120 215 23 41 65 118 94 170 118 207 129 358 40 540 -72 147 -283 289 -437
294 -19 1 -40 4 -46 8 -9 6 -10 399 -3 1206 0 109 -59 247 -144 332 -62 62
-184 134 -262 155 -54 14 -165 21 -205 12 -65 -14 -89 -23 -139 -48 -60 -31
-130 -92 -172 -149 -14 -19 -71 -116 -126 -215 -143 -257 -147 -263 -188 -335
-20 -36 -51 -90 -67 -120 -94 -169 -183 -328 -195 -345 -13 -17 -14 32 -11
375 5 423 4 435 -46 543 -29 63 -139 182 -191 207 -16 8 -41 22 -55 31 -60 39
-186 68 -270 61z"/>
</g>
</svg>
