<?xml version="1.0" encoding="UTF-8" standalone="no"?>
<!-- Created with Inkscape (http://www.inkscape.org/) -->

<svg
   width="512"
   height="512"
   viewBox="0 0 512 512"
   version="1.1"
   id="svg5"
   inkscape:version="1.2.2 (732a01da63, 2022-12-09)"
   sodipodi:docname="logo.svg"
   xmlns:inkscape="http://www.inkscape.org/namespaces/inkscape"
   xmlns:sodipodi="http://sodipodi.sourceforge.net/DTD/sodipodi-0.dtd"
   xmlns="http://www.w3.org/2000/svg"
   xmlns:svg="http://www.w3.org/2000/svg">
  <sodipodi:namedview
     id="namedview7"
     pagecolor="#ffffff"
     bordercolor="#000000"
     borderopacity="0.25"
     inkscape:showpageshadow="2"
     inkscape:pageopacity="0.0"
     inkscape:pagecheckerboard="0"
     inkscape:deskcolor="#d1d1d1"
     inkscape:document-units="px"
     showgrid="false"
     inkscape:zoom="1.5083142"
     inkscape:cx="139.55978"
     inkscape:cy="289.06443"
     inkscape:window-width="1920"
     inkscape:window-height="1009"
     inkscape:window-x="-8"
     inkscape:window-y="-8"
     inkscape:window-maximized="1"
     inkscape:current-layer="layer1" />
  <defs
     id="defs2" />
  <g
     inkscape:label="Слой 1"
     inkscape:groupmode="layer"
     id="layer1">
    <g
       id="g377"
       transform="matrix(3.6472653,0,0,-3.7551695,236.45589,437.79763)">
      <path
         d="M 0,0 H -1.569 C -8.93,0 -14.897,5.967 -14.897,13.328 v 71.521 c 0,7.361 5.967,13.328 13.328,13.328 H 0 c 7.361,0 13.328,-5.967 13.328,-13.328 V 13.328 C 13.328,5.967 7.361,0 0,0"
         style="fill:#035b8c;fill-opacity:1;fill-rule:nonzero;stroke:none"
         id="path379" />
    </g>
    <g
       id="g381"
       transform="matrix(3.6472653,0,0,-3.7551695,386.80602,437.79763)">
      <path
         d="M 0,0 H -1.569 C -8.93,0 -14.897,5.967 -14.897,13.328 v 71.521 c 0,7.361 5.967,13.328 13.328,13.328 H 0 c 7.361,0 13.328,-5.967 13.328,-13.328 V 13.328 C 13.328,5.967 7.361,0 0,0"
         style="fill:#035b8c;fill-opacity:1;fill-rule:nonzero;stroke:none"
         id="path383" />
    </g>
    <g
       id="g385"
       transform="matrix(3.6472653,0,0,-3.7551695,210.34548,432.16149)"
       style="fill:#4f7b9e;fill-opacity:1">
      <path
         d="m 0,0 -1.359,0.784 c -6.374,3.681 -8.558,11.832 -4.878,18.207 l 42.002,72.75 c 3.681,6.374 11.832,8.559 18.207,4.878 l 1.358,-0.784 c 6.375,-3.681 8.559,-11.832 4.879,-18.206 L 18.206,4.878 C 14.526,-1.496 6.375,-3.68 0,0"
         style="fill:#4f7b9e;fill-opacity:1;fill-rule:nonzero;stroke:none"
         id="path387"
         inkscape:highlight-color="#4f7b9e" />
    </g>
    <g
       id="g389"
       transform="matrix(3.6472653,0,0,-3.7551695,59.995355,432.16149)"
       style="fill:#4f7b9e;fill-opacity:1">
      <path
         d="m 0,0 -1.359,0.784 c -6.374,3.681 -8.558,11.832 -4.878,18.207 l 42.002,72.75 c 3.681,6.374 11.832,8.559 18.207,4.878 l 1.358,-0.784 c 6.375,-3.681 8.559,-11.832 4.879,-18.206 L 18.206,4.878 C 14.526,-1.496 6.375,-3.68 0,0"
         style="fill:#4f7b9e;fill-opacity:1;fill-rule:nonzero;stroke:none"
         id="path391"
         inkscape:highlight-color="#4f7b9e" />
    </g>
    <g
       id="g393"
       transform="matrix(3.6472653,0,0,-3.7551695,360.69561,432.16149)"
       inkscape:highlight-color="#4f7b9e"
       style="fill:#4f7b9e;fill-opacity:1">
      <path
         d="M 0,0 -1.359,0.784 C -7.733,4.465 -9.917,12.616 -6.237,18.991 L 9.369,46.02 c 3.68,6.375 11.831,8.559 18.206,4.878 l 1.358,-0.784 c 6.375,-3.68 8.559,-11.831 4.879,-18.206 L 18.206,4.878 C 14.526,-1.496 6.375,-3.68 0,0"
         style="fill:#4f7b9e;fill-opacity:1;fill-rule:nonzero;stroke:none"
         id="path395" />
    </g>
  </g>
</svg>
